REM DIRINDEX 1\2,1\3,1\4,1\5
REM DIRNAME folder01,folder02,folder03,folder04,folder05
TITLE ""
FILE "Round-11-258-259.mp3" MP3
  TRACK 01 AUDIO
    TITLE "0:"
    INDEX 01 00:00:00
  TRACK 02 AUDIO
    TITLE "2:cjc093_2899"
    INDEX 01 00:00:01
  TRACK 03 AUDIO
    TITLE "0:"
    INDEX 01 00:01:17
  TRACK 04 AUDIO
    TITLE "3:cjc093_2900"
    INDEX 01 00:01:73
  TRACK 05 AUDIO
    TITLE "0:"
    INDEX 01 00:03:49
  TRACK 06 AUDIO
    TITLE "4:cjc093_2901"
    INDEX 01 00:03:72
  TRACK 07 AUDIO
    TITLE "0:"
    INDEX 01 00:06:28
  TRACK 08 AUDIO
    TITLE "3:cjc093_2902"
    INDEX 01 00:07:39
  TRACK 09 AUDIO
    TITLE "0:"
    INDEX 01 00:09:20
  TRACK 10 AUDIO
    TITLE "4:cjc093_2903"
    INDEX 01 00:09:63
  TRACK 11 AUDIO
    TITLE "0:"
    INDEX 01 00:13:41
  TRACK 12 AUDIO
    TITLE "2:cjc093_2904"
    INDEX 01 00:14:54
  TRACK 13 AUDIO
    TITLE "0:"
    INDEX 01 00:15:68
  TRACK 14 AUDIO
    TITLE "3:cjc093_2905"
    INDEX 01 00:16:22
  TRACK 15 AUDIO
    TITLE "0:"
    INDEX 01 00:17:67
  TRACK 16 AUDIO
    TITLE "4:cjc093_2906"
    INDEX 01 00:18:19
  TRACK 17 AUDIO
    TITLE "0:"
    INDEX 01 00:22:13
  TRACK 18 AUDIO
    TITLE "2:cjc093_2907"
    INDEX 01 00:23:26
  TRACK 19 AUDIO
    TITLE "0:"
    INDEX 01 00:24:37
  TRACK 20 AUDIO
    TITLE "3:cjc093_2908"
    INDEX 01 00:25:09
  TRACK 21 AUDIO
    TITLE "0:"
    INDEX 01 00:26:52
  TRACK 22 AUDIO
    TITLE "4:cjc093_2909"
    INDEX 01 00:27:12
  TRACK 23 AUDIO
    TITLE "0:"
    INDEX 01 00:30:55
  TRACK 24 AUDIO
    TITLE "2:cjc093_2910"
    INDEX 01 00:31:69
  TRACK 25 AUDIO
    TITLE "0:"
    INDEX 01 00:33:07
  TRACK 26 AUDIO
    TITLE "3:cjc093_2911"
    INDEX 01 00:33:62
  TRACK 27 AUDIO
    TITLE "0:"
    INDEX 01 00:35:63
  TRACK 28 AUDIO
    TITLE "4:cjc093_2912"
    INDEX 01 00:36:23
  TRACK 29 AUDIO
    TITLE "0:"
    INDEX 01 00:38:47
  TRACK 30 AUDIO
    TITLE "3:cjc093_2913"
    INDEX 01 00:39:62
  TRACK 31 AUDIO
    TITLE "0:"
    INDEX 01 00:41:06
  TRACK 32 AUDIO
    TITLE "4:cjc093_2914"
    INDEX 01 00:41:14
  TRACK 33 AUDIO
    TITLE "0:"
    INDEX 01 00:44:20
  TRACK 34 AUDIO
    TITLE "2:cjc093_2915"
    INDEX 01 00:45:37
  TRACK 35 AUDIO
    TITLE "0:"
    INDEX 01 00:46:47
  TRACK 36 AUDIO
    TITLE "3:cjc093_2916"
    INDEX 01 00:47:15
  TRACK 37 AUDIO
    TITLE "0:"
    INDEX 01 00:48:67
  TRACK 38 AUDIO
    TITLE "4:cjc093_2917"
    INDEX 01 00:49:20
  TRACK 39 AUDIO
    TITLE "0:"
    INDEX 01 00:52:00
  TRACK 40 AUDIO
    TITLE "2:cjc093_2918"
    INDEX 01 00:53:13
  TRACK 41 AUDIO
    TITLE "0:"
    INDEX 01 00:54:13
  TRACK 42 AUDIO
    TITLE "3:cjc093_2919"
    INDEX 01 00:54:56
  TRACK 43 AUDIO
    TITLE "0:"
    INDEX 01 00:56:14
  TRACK 44 AUDIO
    TITLE "4:cjc093_2920"
    INDEX 01 00:57:03
  TRACK 45 AUDIO
    TITLE "0:"
    INDEX 01 00:59:28
  TRACK 46 AUDIO
    TITLE "2:cjc093_2921"
    INDEX 01 01:00:45
  TRACK 47 AUDIO
    TITLE "0:"
    INDEX 01 01:01:58
  TRACK 48 AUDIO
    TITLE "3:cjc093_2922"
    INDEX 01 01:02:24
  TRACK 49 AUDIO
    TITLE "0:"
    INDEX 01 01:03:67
  TRACK 50 AUDIO
    TITLE "4:cjc093_2923"
    INDEX 01 01:04:03
  TRACK 51 AUDIO
    TITLE "0:"
    INDEX 01 01:07:49
  TRACK 52 AUDIO
    TITLE "2:cjc093_2924"
    INDEX 01 01:08:64
  TRACK 53 AUDIO
    TITLE "0:"
    INDEX 01 01:09:73
  TRACK 54 AUDIO
    TITLE "3:cjc093_2925"
    INDEX 01 01:10:61
  TRACK 55 AUDIO
    TITLE "0:"
    INDEX 01 01:13:51
  TRACK 56 AUDIO
    TITLE "4:cjc093_2926"
    INDEX 01 01:13:65
  TRACK 57 AUDIO
    TITLE "0:"
    INDEX 01 01:17:08
  TRACK 58 AUDIO
    TITLE "3:cjc093_2927"
    INDEX 01 01:18:17
  TRACK 59 AUDIO
    TITLE "0:"
    INDEX 01 01:19:58
  TRACK 60 AUDIO
    TITLE "4:cjc093_2928"
    INDEX 01 01:20:08
  TRACK 61 AUDIO
    TITLE "0:"
    INDEX 01 01:23:28
